<svg width="981" height="1068" viewBox="0 0 981 1068" fill="none" xmlns="http://www.w3.org/2000/svg">
<g clip-path="url(#clip0_17_185)">
<path fill-rule="evenodd" clip-rule="evenodd" d="M432.48 198.382C450.69 197.142 468.62 199.102 486.62 201.652L487.71 201.836C497.863 203.543 508.21 205.283 517.44 210.052C528.36 204.992 540.42 202.082 552.47 201.952C563.15 201.742 573.95 202.842 584.47 204.652C600.68 207.612 615.46 213.722 630.08 221.122C640.84 226.732 649.93 234.222 658.79 242.412C661.618 244.941 663.984 247.828 666.376 250.746L666.399 250.774C666.562 250.973 666.726 251.173 666.89 251.372C668.626 252.206 670.515 252.76 672.396 253.313C673.494 253.635 674.589 253.956 675.65 254.332C683.62 256.772 691.07 260.502 698.07 265.002C716.919 276.922 732.74 293.032 748 309.192C761.85 324.212 774.2 339.912 780.27 359.752C786.66 380.582 784.46 402.812 780.77 423.922C785.769 429.889 791.348 435.171 796.925 440.452C802.703 445.924 808.48 451.393 813.61 457.622C822.03 467.722 829.95 478.672 835.54 490.622C843.13 506.342 846.35 524.362 846.27 541.732C846.26 558.952 841.77 576.042 832.24 590.482C828.964 595.569 825.23 600.511 821.481 605.472C815.297 613.656 809.074 621.89 804.81 630.912C798.43 644.772 799.8 658.502 801.37 673.202C801.765 676.057 802.022 678.948 802.279 681.842C802.659 686.125 803.04 690.41 803.87 694.582C806.771 702.649 810.074 710.599 813.375 718.543C815.761 724.288 818.147 730.03 820.38 735.812C826.69 753.262 828.68 772.032 821.18 789.482C815.78 802.532 805.63 811.742 793.99 819.242C785.327 824.709 776.092 829.367 766.849 834.028L766.848 834.028C759.979 837.493 753.106 840.959 746.46 844.762C729.21 854.192 713.2 865.672 698.92 879.192C694.73 887.092 689.97 894.662 684.44 901.722C683.429 903.054 682.252 904.181 681.087 905.297L681.086 905.298C679.532 906.787 677.997 908.258 676.9 910.172C669.84 921.252 661.21 931.612 649.14 937.392C633.7 945.282 617.45 946.142 600.47 946.852C589.73 946.672 579.07 945.742 568.63 943.112C552.308 939.298 536.443 931.995 520.611 924.707L520.61 924.706L520.609 924.706C506.634 918.273 492.685 911.851 478.47 907.852C467.62 904.812 456.26 902.432 445.28 906.332C438.358 908.802 432.94 913.62 427.526 918.435C424.611 921.028 421.697 923.619 418.55 925.842C411.85 930.352 404.67 934.022 396.46 934.562C381.36 935.972 365.11 932.822 350.46 929.202C337.36 925.772 324.49 922.352 312.6 915.662C309.589 914 306.676 912.141 303.762 910.28L303.762 910.28L303.761 910.28L303.761 910.279C300.064 907.919 296.367 905.559 292.47 903.602C288.56 902.542 283.73 903.812 279.96 905.092C272.459 907.619 265.404 910.843 258.312 914.084L258.312 914.084L258.31 914.086C254.765 915.705 251.212 917.329 247.59 918.872C235.75 923.982 223.22 928.222 210.46 930.242C200.8 931.942 190.63 930.792 181.35 927.782C165.02 922.092 151.59 908.532 145.82 892.252C141.92 881.762 141.86 870.622 143.97 859.732C145.731 850.863 149.699 842.356 153.678 833.826C157.514 825.602 161.36 817.356 163.25 808.742C164.71 802.352 163.84 795.512 160.25 789.962C156.518 784.649 151.754 781.131 147.013 777.629C142.249 774.111 137.508 770.609 133.86 765.322C127.37 756.062 125.71 744.812 126.04 733.732C126.9 716.372 130.78 698.552 138.78 683.042C143.898 673.082 151.005 665.297 158.479 657.11L158.66 656.912C163.91 651.579 168.44 645.525 172.936 639.518C173.843 638.305 174.749 637.095 175.66 635.892C176.14 635.192 176.644 634.488 177.153 633.777C178.961 631.25 180.829 628.64 181.93 625.822C180.92 618.872 178.43 611.982 175.55 605.592C171.972 597.66 167.983 589.907 163.993 582.155C159.418 573.264 154.843 564.374 150.89 555.212C143.83 538.472 143.31 520.432 146.61 502.742C149.58 487.752 154.36 473.062 161.05 459.322C172.65 434.992 188.77 412.562 204.61 390.832C205.042 390.251 205.474 389.67 205.906 389.089C211.336 381.797 216.75 374.525 221.53 366.772C222.142 365.753 222.801 364.736 223.465 363.712C225.165 361.09 226.894 358.424 227.93 355.562C235.76 332.822 247.16 311.232 261.72 292.082C282.13 265.452 308.2 243.082 337.53 226.812C366.6 210.782 399.32 200.662 432.48 198.382ZM742.36 325.492C751.57 335.892 760.01 348.092 764.64 361.272C769.65 375.532 769.59 390.982 768.03 405.832C767.482 404.686 766.925 403.547 766.368 402.409L766.367 402.407C764.525 398.641 762.689 394.887 761.23 390.932C757.53 381.672 755.52 372.022 753.75 362.242C751.41 349.542 747.26 337.402 742.36 325.492ZM165.01 482.423L165 482.383L164.9 482.703C161.2 495.693 158.07 509.123 158.64 522.733C158.84 532.153 161.28 541.343 165.38 549.803C168.611 556.379 172.099 562.854 175.589 569.332L175.589 569.333C180.988 579.356 186.391 589.386 190.85 599.803C192.72 580.983 188.63 561.333 179.38 544.813C177.919 541.906 176.376 539.124 174.852 536.378C170.971 529.382 167.22 522.621 165.31 514.643C162.79 504.273 163.15 492.973 165.03 482.523V482.483L165.01 482.423ZM804.44 729.803L804.57 730.113C807.57 737.673 810.2 745.683 811.41 753.743C813.18 764.443 812.58 775.273 807.91 785.173C803.37 795.403 793.8 803.033 784.47 808.733C778.167 812.51 771.68 815.932 765.192 819.354L765.191 819.354C756.958 823.697 748.723 828.04 740.86 833.113C728.83 840.683 717.96 849.703 707.22 858.953C710.26 851.253 713.59 843.443 718.45 836.723C723.4 829.863 729.54 823.563 736.64 818.913C740.718 816.199 744.947 813.707 749.176 811.216L749.177 811.215C753.316 808.777 757.454 806.339 761.45 803.693C771.83 796.673 780.65 787.293 787.72 776.983C792.76 769.553 797.27 762.143 800.1 753.563C802.73 745.863 803.9 737.893 804.44 729.803ZM165.92 776.157C164.368 775.618 162.815 775.08 161.25 774.572C167.78 780.652 172.86 787.702 174.27 796.712C176.42 808.042 173.09 817.912 169.03 828.292C167.481 832.377 165.737 836.258 164.017 840.085C159.77 849.533 155.67 858.655 155.03 869.722C152.6 893.952 174.18 917.762 198.58 917.332C188.39 915.542 178.89 911.022 171.68 903.522C164.58 895.522 160.98 884.362 161.91 873.722C163.259 861.715 168.15 851.301 173.186 840.579C173.414 840.094 173.642 839.609 173.87 839.122C174.938 836.855 176.061 834.588 177.189 832.31C181.869 822.86 186.638 813.231 187.96 802.732C188.81 795.802 187.23 788.952 182.49 783.712C179.613 780.778 175.656 779.441 171.847 778.154C171.658 778.09 171.468 778.026 171.28 777.962C169.48 777.391 167.7 776.774 165.92 776.157Z" fill="#9E8129"/>
<path d="M495 231.48C532.09 233.03 568.66 243.59 600.79 262.2C636.91 283.1 667.34 313.97 687.5 350.52C701.74 376.5 711.46 405.48 714.47 434.99C715.49 444.94 716.12 455.64 714.17 465.48C713.38 468.61 713.23 471.52 709.96 473.09C706.91 463.49 706.61 453.9 705.56 443.98C703.32 420.99 698.23 397.94 689.62 376.48C676.17 343.07 654.77 313 627.11 289.87C600.46 267.56 568.45 251.77 534.54 244.15C512.45 239.15 489.57 237.49 467.01 239.38C424.87 242.64 384.07 258.04 349.93 282.89C344.01 287.3 338 291.53 332.51 296.48C311.52 313.98 294.39 336.56 281.34 360.46C271.34 378.84 263.94 398.59 259.62 419.07C256.8 432.76 254.29 445.95 254.59 460C254.76 482.96 261.68 503.48 270.46 524.36C275.89 523.57 281.72 522.87 287.18 523.73C289.88 524.58 290.72 527.82 289 529.98C287.48 531.45 285.01 531.38 283.03 531.66C267.92 533.02 252.36 538.64 241.32 549.32C232.61 557.5 226.69 568.45 224.65 580.22C221.96 595.36 225.4 611.6 233.24 624.76C242.18 639.96 256.52 651.58 272.85 658.06C286.56 663.49 301.67 664.87 316.22 662.73C320.19 662.38 323.67 661.26 327.34 663.34C327.36 664.36 327.39 665.38 327.43 666.4C322.07 670.95 315.72 672.36 308.96 673.45C292.89 675.88 276.08 672.49 261.52 665.49C238.06 654.18 220.04 632.39 214.59 606.79C210.84 588.86 214.17 569.66 224.35 554.36C232.37 542.11 244.21 533.08 257.81 527.82C251.4 514.31 247.75 499.78 246.08 484.95C244.14 467.45 243.99 449.74 245.6 432.21C246.87 419.33 250.15 406.51 254.24 394.26C264.96 362.49 282.93 333.32 306.27 309.27C317.73 297.41 330.49 285.12 344.84 276.85C347.58 275.28 350.3 273.68 352.91 271.89C394.42 243.79 444.89 229.32 495 231.48Z" fill="#D7C090"/>
<path d="M534.54 244.15C568.45 251.77 600.46 267.56 627.11 289.87C654.77 313 676.17 343.07 689.62 376.48C698.23 397.94 703.32 420.99 705.56 443.98C706.61 453.9 706.91 463.49 709.96 473.09C709.29 478.89 708.45 484.65 708.18 490.5C707.82 497.72 706.83 505.31 707.84 512.5C705.1 516.85 704.42 522.05 703.6 527.03C702.41 534.65 702.33 542.27 701.91 549.94C701.05 571.55 701.81 593.35 701.67 615.01C701.69 635.89 698.58 656.86 691.37 676.49C686.85 688.77 680.93 700.47 672.68 710.68C663.09 722.57 651.53 733.14 639.46 742.46C627.88 751.35 615 758.97 602.4 766.31C594.85 770.72 587.47 775.4 580.01 779.97C575.74 782.65 571.6 784.98 567.88 788.42C571.15 787.9 574.23 786.86 577.31 785.67C574.07 797.34 573.72 809.96 573.2 822C572.86 830.11 574.38 837.89 579.72 844.23C586.67 852.49 596.5 858.72 605.59 864.42C622.66 875.01 641.08 883.12 660.26 889.05C666.75 895.88 672.09 904.6 673.76 913.97C675.48 923.03 673.86 932.47 669.61 940.61C664.46 950.6 656.21 958.73 647.23 965.33C634.4 974.74 619.31 981.7 604.41 987.14C574.94 997.73 543.18 1003.41 512.04 1006.06C470.78 1009.26 428.22 1007.62 387.79 998.4C371.05 994.53 354.06 989.14 338.79 981.21C328.51 975.84 318.41 969.03 310.81 960.17C305.31 953.78 301.21 946.36 299.66 938.01C297.75 927.75 300 917.22 305.42 908.37C326.46 895.27 343.65 876.41 354.01 853.85C358.81 843.15 360.83 831.63 361.65 820C362.86 804.44 362.04 788.48 361.11 772.91C359.29 752.71 358.09 731.78 352.96 712.11C363.7 724.38 375.83 735.59 389.58 744.43C406.61 755.43 425.6 763.65 444.73 770.23C465.34 777.33 486.4 783.41 507.8 787.63C516.02 789.2 524.6 790.98 532.98 791.16C535.69 791.11 539.19 791.03 541.47 789.37C542.76 788.49 542.47 787.08 542.75 785.71C536.85 785.78 531.47 784.99 525.76 783.62C496.58 776.6 467.55 768.13 439.48 757.48C420.58 750.29 402.65 741.66 386.21 729.78C368.17 716.91 352.76 700.27 339.16 682.88C335.05 677.84 332.27 671.56 327.55 667.11L327.43 666.4C327.39 665.38 327.36 664.36 327.34 663.34C323.67 661.26 320.19 662.38 316.22 662.73C301.67 664.87 286.56 663.49 272.85 658.06C256.52 651.58 242.18 639.96 233.24 624.76C225.4 611.6 221.96 595.36 224.65 580.22C226.69 568.45 232.61 557.5 241.32 549.32C252.36 538.64 267.92 533.02 283.03 531.66C285.01 531.38 287.48 531.45 289 529.98C290.72 527.82 289.88 524.58 287.18 523.73C281.72 522.87 275.89 523.57 270.46 524.36C261.68 503.48 254.76 482.96 254.59 460C254.29 445.95 256.8 432.76 259.62 419.07C263.94 398.59 271.34 378.84 281.34 360.46C294.39 336.56 311.52 313.98 332.51 296.48C338 291.53 344.01 287.3 349.93 282.89C384.07 258.04 424.87 242.64 467.01 239.38C489.57 237.49 512.45 239.15 534.54 244.15Z" fill="#FFEDC8"/>
<path d="M707.84 512.5C710.73 516.33 710.33 520.46 710.65 525C710.84 534.67 711.2 544.33 711.3 554C711.45 580.31 713.41 607.89 711.03 634.01C707.97 665.38 696.9 696.86 675.38 720.4C649.94 748.27 617.86 770.5 582.48 783.76C583.1 786.14 583.62 788.51 583.66 790.98C583.9 802.57 582.75 814.51 584.06 826.04C584.71 831.75 588.03 836.1 592.3 839.7C600.53 846.59 609.47 852.68 618.45 858.56C629.09 865.43 639.41 872.32 650.48 878.52C658.31 882.95 666.34 886.68 674.44 890.55C676.21 891.37 677.4 892.21 678.61 893.75C672.38 892.84 666.31 890.75 660.26 889.05C641.08 883.12 622.66 875.01 605.59 864.42C596.5 858.72 586.67 852.49 579.72 844.23C574.38 837.89 572.86 830.11 573.2 822C573.72 809.96 574.07 797.34 577.31 785.67C574.23 786.86 571.15 787.9 567.88 788.42C571.6 784.98 575.74 782.65 580.01 779.97C587.47 775.4 594.85 770.72 602.4 766.31C615 758.97 627.88 751.35 639.46 742.46C651.53 733.14 663.09 722.57 672.68 710.68C680.93 700.47 686.85 688.77 691.37 676.49C698.58 656.86 701.69 635.89 701.67 615.01C701.81 593.35 701.05 571.55 701.91 549.94C702.33 542.27 702.41 534.65 703.6 527.03C704.42 522.05 705.1 516.85 707.84 512.5Z" fill="#D7C090"/>
<path d="M278.21 573.8C283.13 578.8 281.93 587.95 278.24 593.35C277.29 595.18 274.74 597.63 275.35 599.78C276.49 602.5 279.67 604.51 282.11 605.99C288.1 609.44 294.12 612.72 300.73 614.86C300.6 619.3 298.04 620.45 294 620.31C287.66 619.38 281.39 617.02 275.55 614.45C269 611.37 263.08 605.77 263.31 598C263.42 591.93 267.62 588.94 269.44 583.77C270.76 579.58 269.03 576.52 267.65 572.71C271.52 571.67 275.01 570.63 278.21 573.8Z" fill="#D7C090"/>
<path d="M327.55 667.11C332.27 671.56 335.05 677.84 339.16 682.88C352.76 700.27 368.17 716.91 386.21 729.78C402.65 741.66 420.58 750.29 439.48 757.48C467.55 768.13 496.58 776.6 525.76 783.62C531.47 784.99 536.85 785.78 542.75 785.71C542.47 787.08 542.76 788.49 541.47 789.37C539.19 791.03 535.69 791.11 532.98 791.16C524.6 790.98 516.02 789.2 507.8 787.63C486.4 783.41 465.34 777.33 444.73 770.23C425.6 763.65 406.61 755.43 389.58 744.43C375.83 735.59 363.7 724.38 352.96 712.11C358.09 731.78 359.29 752.71 361.11 772.91C362.04 788.48 362.86 804.44 361.65 820C360.83 831.63 358.81 843.15 354.01 853.85C343.65 876.41 326.46 895.27 305.42 908.37C300.73 911.11 295.9 914.39 290.69 916.03C293.33 912.33 296.74 910.1 300.07 907.1C313.46 895.78 324.15 882.31 333.67 867.67C340.3 857.54 345.56 846.7 348.01 834.78C351.89 816.28 350.99 795.77 350.66 777C350 757.34 348.51 737.67 348.18 718C348.05 714.64 348.72 711.53 349.78 708.37C339.9 696.53 331.26 682.17 327.55 667.11Z" fill="#D7C090"/>
<path d="M216 569.4C220.65 569.43 225.89 568.44 230.06 570.93C233.22 572.63 235.16 576.29 233.84 579.81C232.3 584.36 227.59 586.79 223.05 587.25C217.62 587.72 211.97 587.94 206.58 587.08C202.43 586.24 197.66 584.22 196.41 579.76C195.46 575.91 198.02 572.94 201.23 571.28C205.84 569.01 211.03 569.56 216 569.4Z" fill="black"/>
<path d="M228.98 592.19C232.3 592.85 235.75 595.29 235.89 598.96C236.21 602.11 234.91 604.55 232.46 606.43C227.42 610.32 220.97 610.33 214.97 611.92C210.3 612.91 205.16 614.24 201.03 611.02C197.14 607.91 197.5 602.22 200.94 598.91C204.67 595.04 209.1 594.97 214.06 594.23C219.12 593.21 223.62 590.97 228.98 592.19Z" fill="black"/>
<path d="M301.48 643.66C303.68 643.24 306.31 643.23 308.51 643.67C312.07 644.67 314.92 648.24 314.81 652C315.05 657.02 310.67 661.19 306.09 662.38C301.34 663.5 296.6 660.39 295.22 655.83C293.56 650.89 296.35 645.01 301.48 643.66Z" fill="black"/>
<path fill-rule="evenodd" clip-rule="evenodd" d="M475.563 198.011C457.733 195.081 439.603 194.361 421.583 195.541C388.743 198.181 356.313 208.321 328.003 225.221C311.913 234.911 297.023 246.661 283.963 260.171C266.893 277.601 252.923 298.451 242.003 320.211C234.843 334.501 228.933 349.401 224.643 364.801C218.083 387.521 215.013 411.691 213.643 435.251C212.253 457.141 213.123 479.101 216.203 500.811C216.437 502.459 216.656 504.134 216.877 505.823C217.724 512.29 218.597 518.953 220.413 525.051C221.193 527.871 223.093 530.421 225.993 531.231C227.225 531.382 228.489 531.362 229.739 531.343C230.062 531.338 230.383 531.333 230.703 531.331C235.853 537.671 242.663 541.821 250.513 543.961C262.903 547.301 276.323 547.711 289.023 546.171C285.903 562.201 289.543 579.731 295.753 594.631C300.993 607.021 308.583 619.661 319.023 628.351C327.593 635.531 337.783 639.431 348.603 641.811C355.173 643.231 362.473 643.941 369.093 642.521C374.323 641.411 378.803 638.421 382.333 634.491C382.407 634.397 382.482 634.305 382.556 634.212C383.818 632.639 385.004 631.162 384.353 628.981C383.417 628.866 382.504 628.797 381.608 628.73C378.844 628.523 376.24 628.329 373.643 626.811C362.683 621.191 354.423 609.401 348.543 598.891C338.113 579.121 333.313 556.131 333.093 533.881C346.153 527.481 357.483 518.141 366.833 507.051C368.827 504.529 371.244 503.139 373.774 501.683C374.936 501.015 376.122 500.333 377.303 499.521C386.533 493.341 394.773 485.601 402.173 477.361C419.543 457.951 432.563 435.091 441.203 410.561C447.183 393.391 451.923 375.771 455.743 358.001C456.409 354.747 457.059 351.481 457.71 348.21C461.806 327.624 465.943 306.832 474.503 287.581C484.563 287.251 494.553 287.161 504.553 288.461C505.777 288.59 507.031 288.759 508.3 288.931C512.338 289.478 516.53 290.045 520.403 289.391C523.363 288.711 524.133 285.381 524.263 282.761C524.312 277.698 521.328 272.693 518.803 268.458L518.733 268.341C533.051 274.748 545.832 283.318 558.759 291.986C560.277 293.004 561.797 294.023 563.323 295.041C563.411 295.093 563.501 295.147 563.593 295.202C565.576 296.387 568.306 298.019 570.533 296.901C576.931 294.233 582.738 290.969 588.617 287.666C591.154 286.24 593.705 284.807 596.323 283.411C598.483 282.248 600.648 281.136 602.806 280.028C607.459 277.639 612.081 275.266 616.563 272.431C613.193 277.791 609.213 284.311 609.293 290.831C609.073 294.181 612.703 295.881 615.513 296.161C626.739 297.219 636.612 294.824 647.12 292.275C648.528 291.934 649.947 291.59 651.383 291.251C655.513 290.221 659.233 292.471 662.193 295.131C671.643 303.581 677.283 316.411 679.033 328.801C679.723 336.651 680.353 344.731 679.443 352.571C679.147 356.357 678.723 360.131 678.299 363.904C677.893 367.526 677.486 371.147 677.193 374.781C676.911 379.889 676.518 384.912 676.127 389.904C675.173 402.103 674.232 414.125 674.963 426.791C676.663 442.721 682.363 458.891 694.493 469.881C703.613 478.501 716.623 481.311 728.743 478.761C734.773 477.191 740.313 473.221 744.883 469.091C749.613 464.571 751.853 459.581 751.913 452.971C748.045 453.847 744.395 455.217 740.748 456.586C736.279 458.265 731.815 459.941 726.963 460.701C726.933 458.101 726.863 455.511 726.783 452.921C730.853 450.031 734.393 446.191 736.853 441.851C736.818 438.793 735.934 435.745 735.051 432.697C734.403 430.462 733.756 428.228 733.443 425.991C732.255 418.143 731.383 410.25 730.511 402.356C729.606 394.165 728.7 385.973 727.443 377.831C727.077 375.484 726.724 373.149 726.374 370.826C724.269 356.885 722.223 343.334 717.723 329.731C713.383 315.681 706.303 302.331 698.333 290.021C691.583 280.161 684.083 270.191 675.133 262.211C669.923 257.631 664.113 254.501 657.273 253.141C654.613 247.911 651.153 243.481 646.913 239.441C638.163 231.181 628.523 223.161 617.843 217.521C601.493 209.141 584.883 202.451 566.553 199.891C551.553 197.771 534.873 196.631 520.103 200.591C514.733 201.921 509.563 203.801 504.523 206.061C495.273 201.421 485.673 199.711 475.563 198.011ZM455.325 312.973C458.189 304.381 460.977 296.016 465.523 288.12C451.863 288.93 438.293 290.77 424.863 293.35C417.903 306.52 410.793 320.48 406.413 334.73C400.633 352.98 398.263 371.73 397.063 390.78C396.714 395.836 396.435 400.955 396.153 406.106C395.006 427.115 393.83 448.659 387.823 468.68C406.523 448.29 421.083 424.23 429.973 398C435.358 382.799 439.63 367.313 443.903 351.823C447.461 338.923 451.02 326.021 455.223 313.28L455.325 312.973Z" fill="#9E8129"/>
</g>
<path d="M479.02 385.8C495.19 387.17 512.34 392.51 524.89 403.14C527.71 405.55 532.08 408.28 533.07 412.04C533.75 413.96 532.3 416.68 530.07 416.3C522.38 415.46 514.5 411.31 507.21 408.76C499.72 405.99 492.01 404.33 484.04 403.82C476.67 403.48 469.15 403.9 461.85 404.97C447.04 407.46 432.32 414.3 418.94 420.94C411.87 424.08 404.78 427.09 397.81 430.46L396.68 429.18C397.67 424.56 399.78 420.34 402.59 416.57C409.27 407.25 420.15 401.33 430.12 396.12C445.13 388.83 462.33 384.97 479.02 385.8Z" fill="#5D4C18"/>
<path d="M672.5 390.36C678.21 392.3 684 395.42 688.05 399.96C691.77 404.33 693.04 409.44 691.62 415.05C683.97 413.19 676.62 410.19 669.05 408.1C662.31 406.2 655.89 406.63 649 406.36C641.61 406.16 634.19 407.06 627.6 410.58C623.03 412.94 619.16 416.13 615.05 419.16C614.02 420.2 611.97 420.1 611.52 418.57C610.62 416.04 612.39 412.78 613.66 410.64C618.96 402.42 627.41 396.13 636.48 392.64C648.26 388.6 660.33 386.68 672.5 390.36Z" fill="#5D4C18"/>
<path d="M590.96 528.02C592.28 527.95 593.02 528.53 593.19 529.75C595.46 537.12 597.17 544.5 600.49 551.53C604.46 559.87 610.33 567.04 614.68 575.22C618.51 581.36 621.21 587.65 620.29 595.07C618.9 601.23 615.74 606.79 611.02 611.02C603.76 617.64 595.36 623.15 586.47 627.32C580.75 629.95 574.73 631.41 568.54 629.44C569.88 627.32 571.9 626.26 573.9 624.87C585.49 616.46 598.71 610.62 609.94 600.94C612.42 598.69 614.24 595.44 613.75 592C613.08 585.45 609.33 581.27 606.17 575.84C601.42 567.43 595.77 560.44 592.86 551.03C590.64 543.89 589.1 535.38 590.96 528.02Z" fill="black"/>
<path d="M618.68 659.3C620.2 661.69 617.89 665.53 616.81 667.79C612.15 677.02 603.44 681.48 595.82 688.97C596.07 693.21 593.75 696.21 592.7 700.5C590.39 709.04 587.05 717.28 579.78 722.8C576.62 725.06 573.08 724.78 569.4 724.5C566.06 724.14 563.33 721.79 562.46 718.54C561.45 714.07 562.39 709.58 564.61 705.63C571.19 694.23 580.66 686.71 591.15 679.17C598.58 673.2 606.14 669.41 612.29 662.29C613.93 660.68 616.11 657.83 618.68 659.3Z" fill="black"/>
<path d="M445.97 478.51C461.14 477.25 476.31 481.11 489.41 488.72C502.51 496.2 512.41 509.28 517.79 523.22C519.08 527.34 521.1 531.61 518.33 535.59C512.67 532.39 510.41 527.33 506.7 522.32C500.64 513.79 493.24 505.24 484.16 499.84C472.73 492.9 459.39 489.05 445.97 490.61C431.78 492.25 418.52 499.54 407.96 508.94C404 512.85 399.87 516.54 395.73 520.26C391.69 515.54 393.69 510.27 396.69 505.67C407.56 488.96 426.53 480.15 445.97 478.51Z" fill="black"/>
<path d="M676.23 479.76C681.7 481.8 686.33 485.97 688.51 491.42C691.57 499.09 690.83 508.26 687.85 515.83C686.5 519.09 683.71 521.95 679.88 521.29C675.99 519.76 675.25 515.78 675.5 512.01C675.69 506.48 677.77 498.38 674.41 493.53C672.15 490.65 667.43 489.77 664 489.5C655.79 488.93 647.11 493.2 640.11 497.13C628.46 503.77 618.67 513.53 612.43 525.43C611.31 527.06 610.04 530.52 607.82 530.64C604.96 528.6 606.74 523.03 607.5 520.22C612.03 507.23 622.08 495.95 633.57 488.59C640.07 484.43 647.25 480.63 654.76 478.73C661.82 476.91 669.38 477.3 676.23 479.76Z" fill="black"/>
<path d="M644.04 505.64C649.96 506.44 654.46 511.35 655.84 517.01C657.81 525.53 655.87 533.84 652.18 541.58C662.2 538.8 671.88 535.27 681.57 531.53C676.96 540.5 666.4 545.67 657.5 549.38C647.65 553.44 636.71 557.04 626 557.31C621.01 557.17 616.43 557.43 613.15 553.05C615.73 548.38 620.02 548.67 624.61 547.46C621.68 541.13 622.06 534.77 622.5 527.99C622.96 521.96 625.47 516.07 629.74 511.75C633.51 507.93 638.49 505.02 644.04 505.64Z" fill="black"/>
<path d="M483.98 514.79C488.3 514.24 492.2 515.68 495.14 518.87C498.51 522.63 500.89 527.4 502.4 532.19C504.61 539.24 503.15 546.67 502.71 553.95C506.83 553.66 511.45 552.84 515.5 553.75C517.66 554.4 519.31 555.92 518.41 558.31C517.07 560.58 513.9 561.79 511.53 562.62C500.73 565.98 489.2 565.99 478 565.87C461.28 565.73 444.02 562.93 428.53 556.45C423.53 554.22 418.8 552.13 414.72 548.38C418.53 548.91 422.13 550.09 425.8 551.15C437.96 554.43 450.82 555.41 463.37 555.77C460.65 546.59 460.2 536.49 464.76 527.8C468.3 520.51 476.11 515.82 483.98 514.79Z" fill="black"/>
<defs>
<clipPath id="clip0_17_185">
<rect width="981" height="1068" fill="white"/>
</clipPath>
</defs>
</svg>
