<svg width="75" height="28" viewBox="0 0 75 28" fill="none" xmlns="http://www.w3.org/2000/svg">
<path d="M5.37518 27L0.261541 7.36364H6.53853L9.18484 19.9432H9.35103L12.1891 7.36364H18.3127L21.2274 19.8537H21.3936L23.9632 7.36364H30.2402L25.1138 27H18.4277L15.3596 15.5582H15.1422L12.074 27H5.37518ZM32.7491 27V0.818181H39.0005V10.7259H39.1284C39.3841 10.1293 39.7463 9.55398 40.215 9C40.6923 8.44602 41.2974 7.99432 42.0304 7.64489C42.7718 7.28693 43.6582 7.10795 44.6895 7.10795C46.0531 7.10795 47.3272 7.46591 48.5119 8.18182C49.7051 8.89773 50.6681 10.0014 51.4011 11.4929C52.1341 12.9844 52.5005 14.8849 52.5005 17.1946C52.5005 19.419 52.1468 21.2812 51.4395 22.7812C50.7406 24.2812 49.7946 25.4062 48.6014 26.1562C47.4167 26.9062 46.1 27.2812 44.6511 27.2812C43.6625 27.2812 42.8059 27.1193 42.0815 26.7955C41.3571 26.4716 40.7477 26.0455 40.2534 25.517C39.7676 24.9886 39.3926 24.4219 39.1284 23.8168H38.9366V27H32.7491ZM38.8727 17.1818C38.8727 18.2386 39.0133 19.1591 39.2946 19.9432C39.5843 20.7273 39.9977 21.3366 40.5346 21.7713C41.0801 22.1974 41.7321 22.4105 42.4906 22.4105C43.2576 22.4105 43.9096 22.1974 44.4466 21.7713C44.9835 21.3366 45.3883 20.7273 45.661 19.9432C45.9423 19.1591 46.0829 18.2386 46.0829 17.1818C46.0829 16.125 45.9423 15.2088 45.661 14.4332C45.3883 13.6577 44.9835 13.0568 44.4466 12.6307C43.9181 12.2045 43.2662 11.9915 42.4906 11.9915C41.7235 11.9915 41.0716 12.2003 40.5346 12.6179C39.9977 13.0355 39.5843 13.6321 39.2946 14.4077C39.0133 15.1832 38.8727 16.108 38.8727 17.1818Z" fill="#2C2B31"/>
<path d="M64.9426 27.3707C62.8716 27.3707 61.0946 26.9446 59.6117 26.0923C58.1373 25.2401 57.0037 24.0554 56.2111 22.5384C55.4185 21.0128 55.0222 19.2486 55.0222 17.2457C55.0222 15.2344 55.4185 13.4702 56.2111 11.9531C57.0123 10.4276 58.15 9.23864 59.6245 8.38636C61.1074 7.53409 62.8759 7.10795 64.9299 7.10795C66.7452 7.10795 68.3262 7.43608 69.6728 8.09233C71.0279 8.74858 72.0847 9.67756 72.8432 10.8793C73.6103 12.0724 74.0151 13.4744 74.0577 15.0852H68.2154C68.0961 14.0795 67.7551 13.2912 67.1926 12.7202C66.6387 12.1491 65.9142 11.8636 65.0194 11.8636C64.2949 11.8636 63.66 12.0682 63.1145 12.4773C62.5691 12.8778 62.1429 13.4744 61.8361 14.267C61.5378 15.0511 61.3887 16.0227 61.3887 17.1818C61.3887 18.3409 61.5378 19.321 61.8361 20.1222C62.1429 20.9148 62.5691 21.5156 63.1145 21.9247C63.66 22.3253 64.2949 22.5256 65.0194 22.5256C65.5989 22.5256 66.1103 22.402 66.5534 22.1548C67.0051 21.9077 67.3759 21.5455 67.6657 21.0682C67.9554 20.5824 68.1387 19.9943 68.2154 19.304H74.0577C73.998 20.9233 73.5932 22.3381 72.8432 23.5483C72.1017 24.7585 71.0577 25.7003 69.7111 26.3736C68.373 27.0384 66.7836 27.3707 64.9426 27.3707Z" fill="#0B82D8"/>
</svg>
